<svg width="55" height="46" viewBox="0 0 55 46" fill="none" xmlns="http://www.w3.org/2000/svg">
<path d="M24.5 22C25.0523 22 25.5 21.5523 25.5 21C25.5 20.4477 25.0523 20 24.5 20C23.9477 20 23.5 20.4477 23.5 21C23.5 21.5523 23.9477 22 24.5 22Z" stroke="#454545" stroke-width="2" stroke-linecap="round" stroke-linejoin="round"/>
<path d="M34.5 22C35.0523 22 35.5 21.5523 35.5 21C35.5 20.4477 35.0523 20 34.5 20C33.9477 20 33.5 20.4477 33.5 21C33.5 21.5523 33.9477 22 34.5 22Z" stroke="#454545" stroke-width="2" stroke-linecap="round" stroke-linejoin="round"/>
<path d="M16.5 1H20.5L23.18 15.2823C23.2714 15.7734 23.5219 16.2145 23.8875 16.5285C24.2532 16.8424 24.7107 17.0092 25.18 16.9996H34.9C35.3693 17.0092 35.8268 16.8424 36.1925 16.5285C36.5581 16.2145 36.8086 15.7734 36.9 15.2823L38.5 6.3332H21.5" stroke="#454545" stroke-width="2" stroke-linecap="round" stroke-linejoin="round"/>
<path d="M2.13281 33.0469V43H1.29199V33.0469H2.13281ZM8.36719 33.0469L3.95117 38.3311H1.79785L1.72266 37.6064H3.45898L7.31445 33.0469H8.36719ZM7.62207 43L3.41797 38.2354L3.90332 37.4971L8.66797 43H7.62207ZM9.37207 39.418V39.1924C9.37207 38.6546 9.44954 38.1579 9.60449 37.7021C9.75944 37.2464 9.98047 36.8522 10.2676 36.5195C10.5592 36.1868 10.9079 35.9294 11.3135 35.7471C11.7191 35.5602 12.1702 35.4668 12.667 35.4668C13.1683 35.4668 13.6217 35.5602 14.0273 35.7471C14.4329 35.9294 14.7816 36.1868 15.0732 36.5195C15.3649 36.8522 15.5882 37.2464 15.7432 37.7021C15.8981 38.1579 15.9756 38.6546 15.9756 39.1924V39.418C15.9756 39.9557 15.8981 40.4525 15.7432 40.9082C15.5882 41.3594 15.3649 41.7513 15.0732 42.084C14.7861 42.4167 14.4398 42.6764 14.0342 42.8633C13.6286 43.0456 13.1774 43.1367 12.6807 43.1367C12.1794 43.1367 11.7259 43.0456 11.3203 42.8633C10.9147 42.6764 10.5661 42.4167 10.2744 42.084C9.98275 41.7513 9.75944 41.3594 9.60449 40.9082C9.44954 40.4525 9.37207 39.9557 9.37207 39.418ZM10.1855 39.1924V39.418C10.1855 39.8236 10.2402 40.2087 10.3496 40.5732C10.459 40.9333 10.6185 41.2546 10.8281 41.5371C11.0378 41.8151 11.2975 42.0339 11.6074 42.1934C11.9173 42.3529 12.2751 42.4326 12.6807 42.4326C13.0817 42.4326 13.4349 42.3529 13.7402 42.1934C14.0501 42.0339 14.3099 41.8151 14.5195 41.5371C14.7292 41.2546 14.8864 40.9333 14.9912 40.5732C15.1006 40.2087 15.1553 39.8236 15.1553 39.418V39.1924C15.1553 38.7913 15.1006 38.4108 14.9912 38.0508C14.8864 37.6908 14.7269 37.3695 14.5127 37.0869C14.3031 36.8044 14.0433 36.5811 13.7334 36.417C13.4235 36.2529 13.068 36.1709 12.667 36.1709C12.266 36.1709 11.9105 36.2529 11.6006 36.417C11.2952 36.5811 11.0355 36.8044 10.8213 37.0869C10.6117 37.3695 10.4521 37.6908 10.3428 38.0508C10.238 38.4108 10.1855 38.7913 10.1855 39.1924ZM18.4775 37.0254V45.8438H17.6572V35.6035H18.4229L18.4775 37.0254ZM23.6182 39.2334V39.377C23.6182 39.9284 23.5544 40.4342 23.4268 40.8945C23.2992 41.3548 23.1146 41.7536 22.873 42.0908C22.6361 42.4235 22.3421 42.681 21.9912 42.8633C21.6403 43.0456 21.2415 43.1367 20.7949 43.1367C20.3529 43.1367 19.9587 43.0684 19.6123 42.9316C19.266 42.7949 18.9674 42.6012 18.7168 42.3506C18.4707 42.0954 18.2725 41.7992 18.1221 41.4619C17.9762 41.1201 17.8737 40.7464 17.8145 40.3408V38.4473C17.8828 38.0007 17.9945 37.5951 18.1494 37.2305C18.3044 36.8659 18.5026 36.5514 18.7441 36.2871C18.9902 36.0228 19.2819 35.82 19.6191 35.6787C19.9564 35.5374 20.3415 35.4668 20.7744 35.4668C21.2256 35.4668 21.6266 35.5557 21.9775 35.7334C22.333 35.9066 22.6315 36.1595 22.873 36.4922C23.1191 36.8203 23.3037 37.2168 23.4268 37.6816C23.5544 38.1419 23.6182 38.6592 23.6182 39.2334ZM22.7979 39.377V39.2334C22.7979 38.8005 22.7523 38.3994 22.6611 38.0303C22.5745 37.6611 22.4401 37.3398 22.2578 37.0664C22.0801 36.7884 21.8522 36.5719 21.5742 36.417C21.3008 36.262 20.9749 36.1846 20.5967 36.1846C20.2048 36.1846 19.8698 36.2507 19.5918 36.3828C19.3184 36.5104 19.0905 36.6813 18.9082 36.8955C18.7259 37.1051 18.5824 37.3353 18.4775 37.5859C18.3727 37.8366 18.2952 38.0827 18.2451 38.3242V40.5049C18.3317 40.8512 18.4707 41.1725 18.6621 41.4688C18.8535 41.7604 19.1087 41.9951 19.4277 42.1729C19.7513 42.346 20.1455 42.4326 20.6104 42.4326C20.984 42.4326 21.3076 42.3551 21.5811 42.2002C21.8545 42.0452 22.0801 41.8288 22.2578 41.5508C22.4401 41.2728 22.5745 40.9492 22.6611 40.5801C22.7523 40.2109 22.7979 39.8099 22.7979 39.377ZM27.9932 39.418H26.8037V38.8643H27.9248C28.3805 38.8643 28.7428 38.8118 29.0117 38.707C29.2806 38.5977 29.4743 38.445 29.5928 38.249C29.7113 38.0531 29.7705 37.8229 29.7705 37.5586C29.7705 37.3034 29.7067 37.071 29.5791 36.8613C29.4561 36.6517 29.2578 36.4831 28.9844 36.3555C28.7109 36.2279 28.3486 36.1641 27.8975 36.1641C27.5511 36.1641 27.2321 36.2256 26.9404 36.3486C26.6488 36.4717 26.4141 36.6403 26.2363 36.8545C26.0632 37.0687 25.9766 37.3171 25.9766 37.5996H25.1562C25.1562 37.1621 25.2839 36.7839 25.5391 36.4648C25.7943 36.1458 26.1292 35.8997 26.5439 35.7266C26.9632 35.5534 27.4144 35.4668 27.8975 35.4668C28.3167 35.4668 28.6927 35.5124 29.0254 35.6035C29.3581 35.6947 29.6406 35.8291 29.873 36.0068C30.1055 36.1846 30.2832 36.4056 30.4062 36.6699C30.5293 36.9297 30.5908 37.2282 30.5908 37.5654C30.5908 37.8206 30.5316 38.0599 30.4131 38.2832C30.2992 38.5065 30.1305 38.7048 29.9072 38.8779C29.6885 39.0465 29.4173 39.1787 29.0938 39.2744C28.7747 39.3701 28.4079 39.418 27.9932 39.418ZM26.8037 39.042H27.9932C28.4489 39.042 28.8477 39.0853 29.1895 39.1719C29.5312 39.2539 29.8161 39.377 30.0439 39.541C30.2718 39.7051 30.4404 39.9079 30.5498 40.1494C30.6637 40.3864 30.7207 40.6598 30.7207 40.9697C30.7207 41.307 30.6523 41.61 30.5156 41.8789C30.3835 42.1478 30.1921 42.3757 29.9414 42.5625C29.6908 42.7493 29.3923 42.8906 29.0459 42.9863C28.6995 43.082 28.3167 43.1299 27.8975 43.1299C27.4463 43.1299 26.9997 43.0501 26.5576 42.8906C26.1201 42.7311 25.7578 42.485 25.4707 42.1523C25.1836 41.8197 25.04 41.3958 25.04 40.8809H25.8535C25.8535 41.1634 25.9424 41.4232 26.1201 41.6602C26.2979 41.8971 26.5394 42.0863 26.8447 42.2275C27.1546 42.3688 27.5055 42.4395 27.8975 42.4395C28.3395 42.4395 28.7087 42.3779 29.0049 42.2549C29.3011 42.1273 29.5244 41.9541 29.6748 41.7354C29.8252 41.5166 29.9004 41.266 29.9004 40.9834C29.9004 40.6507 29.8275 40.3818 29.6816 40.1768C29.5404 39.9717 29.3239 39.8213 29.0322 39.7256C28.7406 39.6299 28.3714 39.582 27.9248 39.582H26.8037V39.042ZM33.3936 41.6738L37.3926 35.6035H38.2129V43H37.3926V36.9297L33.3936 43H32.5869V35.6035H33.3936V41.6738ZM45.4521 38.9121V39.6094H41.0635V38.9121H45.4521ZM41.2754 35.6035V43H40.4619V35.6035H41.2754ZM46.0811 35.6035V43H45.2607V35.6035H46.0811ZM52.7803 41.6738V37.8594C52.7803 37.5085 52.7074 37.2054 52.5615 36.9502C52.4157 36.695 52.2015 36.499 51.9189 36.3623C51.6364 36.2256 51.2878 36.1572 50.873 36.1572C50.4902 36.1572 50.1484 36.2256 49.8477 36.3623C49.5514 36.4945 49.3167 36.6745 49.1436 36.9023C48.9749 37.1257 48.8906 37.374 48.8906 37.6475L48.0703 37.6406C48.0703 37.3626 48.1387 37.0938 48.2754 36.834C48.4121 36.5742 48.6058 36.3418 48.8564 36.1367C49.1071 35.9316 49.4056 35.7699 49.752 35.6514C50.1029 35.5283 50.488 35.4668 50.9072 35.4668C51.4359 35.4668 51.9007 35.5557 52.3018 35.7334C52.7074 35.9111 53.0241 36.1777 53.252 36.5332C53.4798 36.8887 53.5938 37.3353 53.5938 37.873V41.4482C53.5938 41.7035 53.612 41.9678 53.6484 42.2412C53.6895 42.5146 53.7464 42.7402 53.8193 42.918V43H52.9512C52.8965 42.8359 52.8532 42.6309 52.8213 42.3848C52.7939 42.1341 52.7803 41.8971 52.7803 41.6738ZM52.9717 38.6934L52.9854 39.3223H51.3789C50.9596 39.3223 50.5837 39.361 50.251 39.4385C49.9229 39.5114 49.6449 39.6208 49.417 39.7666C49.1891 39.9079 49.0137 40.0788 48.8906 40.2793C48.7721 40.4798 48.7129 40.7077 48.7129 40.9629C48.7129 41.2272 48.779 41.4688 48.9111 41.6875C49.0479 41.9062 49.2393 42.0817 49.4854 42.2139C49.736 42.3415 50.0322 42.4053 50.374 42.4053C50.8298 42.4053 51.2308 42.321 51.5771 42.1523C51.9281 41.9837 52.2174 41.7627 52.4453 41.4893C52.6732 41.2158 52.8258 40.9173 52.9033 40.5938L53.2588 41.0654C53.1995 41.2933 53.0902 41.528 52.9307 41.7695C52.7757 42.0065 52.5729 42.2298 52.3223 42.4395C52.0716 42.6445 51.7754 42.8132 51.4336 42.9453C51.0964 43.0729 50.7135 43.1367 50.2852 43.1367C49.8021 43.1367 49.3805 43.0456 49.0205 42.8633C48.665 42.681 48.387 42.4326 48.1865 42.1182C47.9906 41.7992 47.8926 41.4391 47.8926 41.0381C47.8926 40.6735 47.9701 40.3477 48.125 40.0605C48.2799 39.7689 48.5033 39.5228 48.7949 39.3223C49.0911 39.1172 49.4466 38.9622 49.8613 38.8574C50.2806 38.748 50.75 38.6934 51.2695 38.6934H52.9717Z" fill="#454545"/>
</svg>
