<svg width="58" height="47" viewBox="0 0 58 47" fill="none" xmlns="http://www.w3.org/2000/svg">
<path d="M39 23V20.6667C39 19.429 38.4732 18.242 37.5355 17.3668C36.5979 16.4917 35.3261 16 34 16H24C22.6739 16 21.4021 16.4917 20.4645 17.3668C19.5268 18.242 19 19.429 19 20.6667V23" stroke="#454545" stroke-width="2" stroke-linecap="round" stroke-linejoin="round"/>
<path d="M28.5 11C31.2614 11 33.5 8.76142 33.5 6C33.5 3.23858 31.2614 1 28.5 1C25.7386 1 23.5 3.23858 23.5 6C23.5 8.76142 25.7386 11 28.5 11Z" stroke="#454545" stroke-width="2" stroke-linecap="round" stroke-linejoin="round"/>
<path d="M8.10645 34.0469V44H7.27246V34.7715H1.63281V44H0.791992V34.0469H8.10645ZM11.292 38.0254V46.8438H10.4717V36.6035H11.2373L11.292 38.0254ZM16.4326 40.2334V40.377C16.4326 40.9284 16.3688 41.4342 16.2412 41.8945C16.1136 42.3548 15.929 42.7536 15.6875 43.0908C15.4505 43.4235 15.1566 43.681 14.8057 43.8633C14.4548 44.0456 14.056 44.1367 13.6094 44.1367C13.1673 44.1367 12.7731 44.0684 12.4268 43.9316C12.0804 43.7949 11.7819 43.6012 11.5312 43.3506C11.2852 43.0954 11.0869 42.7992 10.9365 42.4619C10.7907 42.1201 10.6882 41.7464 10.6289 41.3408V39.4473C10.6973 39.0007 10.8089 38.5951 10.9639 38.2305C11.1188 37.8659 11.3171 37.5514 11.5586 37.2871C11.8047 37.0228 12.0964 36.82 12.4336 36.6787C12.7708 36.5374 13.1559 36.4668 13.5889 36.4668C14.04 36.4668 14.4411 36.5557 14.792 36.7334C15.1475 36.9066 15.446 37.1595 15.6875 37.4922C15.9336 37.8203 16.1182 38.2168 16.2412 38.6816C16.3688 39.1419 16.4326 39.6592 16.4326 40.2334ZM15.6123 40.377V40.2334C15.6123 39.8005 15.5667 39.3994 15.4756 39.0303C15.389 38.6611 15.2546 38.3398 15.0723 38.0664C14.8945 37.7884 14.6667 37.5719 14.3887 37.417C14.1152 37.262 13.7894 37.1846 13.4111 37.1846C13.0192 37.1846 12.6842 37.2507 12.4062 37.3828C12.1328 37.5104 11.9049 37.6813 11.7227 37.8955C11.5404 38.1051 11.3968 38.3353 11.292 38.5859C11.1872 38.8366 11.1097 39.0827 11.0596 39.3242V41.5049C11.1462 41.8512 11.2852 42.1725 11.4766 42.4688C11.668 42.7604 11.9232 42.9951 12.2422 43.1729C12.5658 43.346 12.96 43.4326 13.4248 43.4326C13.7985 43.4326 14.1221 43.3551 14.3955 43.2002C14.6689 43.0452 14.8945 42.8288 15.0723 42.5508C15.2546 42.2728 15.389 41.9492 15.4756 41.5801C15.5667 41.2109 15.6123 40.8099 15.6123 40.377ZM17.7998 40.418V40.1924C17.7998 39.6546 17.8773 39.1579 18.0322 38.7021C18.1872 38.2464 18.4082 37.8522 18.6953 37.5195C18.987 37.1868 19.3356 36.9294 19.7412 36.7471C20.1468 36.5602 20.598 36.4668 21.0947 36.4668C21.596 36.4668 22.0495 36.5602 22.4551 36.7471C22.8607 36.9294 23.2093 37.1868 23.501 37.5195C23.7926 37.8522 24.016 38.2464 24.1709 38.7021C24.3258 39.1579 24.4033 39.6546 24.4033 40.1924V40.418C24.4033 40.9557 24.3258 41.4525 24.1709 41.9082C24.016 42.3594 23.7926 42.7513 23.501 43.084C23.2139 43.4167 22.8675 43.6764 22.4619 43.8633C22.0563 44.0456 21.6051 44.1367 21.1084 44.1367C20.6071 44.1367 20.1536 44.0456 19.748 43.8633C19.3424 43.6764 18.9938 43.4167 18.7021 43.084C18.4105 42.7513 18.1872 42.3594 18.0322 41.9082C17.8773 41.4525 17.7998 40.9557 17.7998 40.418ZM18.6133 40.1924V40.418C18.6133 40.8236 18.668 41.2087 18.7773 41.5732C18.8867 41.9333 19.0462 42.2546 19.2559 42.5371C19.4655 42.8151 19.7253 43.0339 20.0352 43.1934C20.3451 43.3529 20.7028 43.4326 21.1084 43.4326C21.5094 43.4326 21.8626 43.3529 22.168 43.1934C22.4779 43.0339 22.7376 42.8151 22.9473 42.5371C23.1569 42.2546 23.3141 41.9333 23.4189 41.5732C23.5283 41.2087 23.583 40.8236 23.583 40.418V40.1924C23.583 39.7913 23.5283 39.4108 23.4189 39.0508C23.3141 38.6908 23.1546 38.3695 22.9404 38.0869C22.7308 37.8044 22.471 37.5811 22.1611 37.417C21.8512 37.2529 21.4958 37.1709 21.0947 37.1709C20.6937 37.1709 20.3382 37.2529 20.0283 37.417C19.723 37.5811 19.4632 37.8044 19.249 38.0869C19.0394 38.3695 18.8799 38.6908 18.7705 39.0508C18.6657 39.4108 18.6133 39.7913 18.6133 40.1924ZM34.4111 40.3633V40.5068C34.4111 41.0492 34.3519 41.5436 34.2334 41.9902C34.1195 42.4323 33.9486 42.8151 33.7207 43.1387C33.4974 43.4622 33.2194 43.7106 32.8867 43.8838C32.5586 44.057 32.1826 44.1436 31.7588 44.1436C31.4535 44.1436 31.1823 44.1048 30.9453 44.0273C30.7083 43.9499 30.5055 43.8451 30.3369 43.7129C30.1729 43.5807 30.0407 43.4281 29.9404 43.2549C29.8447 43.0817 29.7786 42.9017 29.7422 42.7148V37.998C29.7878 37.7793 29.8607 37.5788 29.9609 37.3965C30.0612 37.2096 30.1934 37.0479 30.3574 36.9111C30.5215 36.7699 30.7174 36.6605 30.9453 36.583C31.1732 36.5055 31.4398 36.4668 31.7451 36.4668C32.0869 36.4668 32.3991 36.5283 32.6816 36.6514C32.9642 36.7699 33.2126 36.943 33.4268 37.1709C33.641 37.3942 33.821 37.6654 33.9668 37.9844C34.1126 38.3034 34.222 38.6634 34.2949 39.0645C34.3724 39.4655 34.4111 39.8984 34.4111 40.3633ZM33.5977 40.5068V40.3633C33.5977 40.0078 33.5726 39.6706 33.5225 39.3516C33.4723 39.0326 33.3949 38.7409 33.29 38.4766C33.1852 38.2077 33.0508 37.9775 32.8867 37.7861C32.7272 37.5902 32.5358 37.4398 32.3125 37.335C32.0938 37.2256 31.8431 37.1709 31.5605 37.1709C31.2461 37.1709 30.9932 37.2096 30.8018 37.2871C30.6104 37.3646 30.4668 37.458 30.3711 37.5674C30.2754 37.6768 30.207 37.777 30.166 37.8682V42.8857C30.2161 42.9541 30.2959 43.0316 30.4053 43.1182C30.5192 43.2048 30.6719 43.2799 30.8633 43.3438C31.0547 43.4076 31.2917 43.4395 31.5742 43.4395C31.9251 43.4395 32.2282 43.3665 32.4834 43.2207C32.7386 43.0749 32.9482 42.8698 33.1123 42.6055C33.2764 42.3411 33.3971 42.0312 33.4746 41.6758C33.5566 41.3203 33.5977 40.9307 33.5977 40.5068ZM25.7842 40.5068V40.3633C25.7842 39.8984 25.8206 39.4655 25.8936 39.0645C25.971 38.6634 26.0827 38.3034 26.2285 37.9844C26.3789 37.6654 26.5612 37.3942 26.7754 37.1709C26.9896 36.943 27.238 36.7699 27.5205 36.6514C27.8031 36.5283 28.1152 36.4668 28.457 36.4668C28.7578 36.4668 29.0199 36.5055 29.2432 36.583C29.471 36.6605 29.6647 36.7699 29.8242 36.9111C29.9837 37.0479 30.1136 37.2096 30.2139 37.3965C30.3141 37.5788 30.3893 37.7793 30.4395 37.998V42.6533C30.403 42.8493 30.3346 43.0384 30.2344 43.2207C30.1387 43.3984 30.0088 43.5579 29.8447 43.6992C29.6852 43.8359 29.487 43.943 29.25 44.0205C29.0176 44.1025 28.7487 44.1436 28.4434 44.1436C28.0195 44.1436 27.6413 44.057 27.3086 43.8838C26.9805 43.7106 26.7025 43.4622 26.4746 43.1387C26.2513 42.8151 26.0804 42.4323 25.9619 41.9902C25.8434 41.5436 25.7842 41.0492 25.7842 40.5068ZM26.6113 40.3633V40.5068C26.6113 40.9307 26.6478 41.3203 26.7207 41.6758C26.7982 42.0312 26.9167 42.3411 27.0762 42.6055C27.2402 42.8698 27.4476 43.0749 27.6982 43.2207C27.9489 43.3665 28.2474 43.4395 28.5938 43.4395C28.8809 43.4395 29.1201 43.4053 29.3115 43.3369C29.5029 43.264 29.6533 43.1797 29.7627 43.084C29.8766 42.9883 29.9587 42.9017 30.0088 42.8242V37.8682C29.9678 37.777 29.8994 37.6768 29.8037 37.5674C29.708 37.458 29.5645 37.3646 29.373 37.2871C29.1862 37.2096 28.931 37.1709 28.6074 37.1709C28.2565 37.1709 27.9535 37.2529 27.6982 37.417C27.4476 37.5811 27.2402 37.8089 27.0762 38.1006C26.9167 38.3923 26.7982 38.7318 26.7207 39.1191C26.6478 39.502 26.6113 39.9167 26.6113 40.3633ZM29.667 46.8438V33.5H30.4873V46.8438H29.667ZM37.1182 42.6738L41.1172 36.6035H41.9375V44H41.1172V37.9297L37.1182 44H36.3115V36.6035H37.1182V42.6738ZM49.1494 36.6035V37.3145H45.4033V36.6035H49.1494ZM49.8125 36.6035V44H48.999V36.6035H49.8125ZM45.1846 36.6035H45.998L45.834 40.0693C45.8066 40.6299 45.7611 41.1266 45.6973 41.5596C45.638 41.9925 45.556 42.3639 45.4512 42.6738C45.3464 42.9792 45.2119 43.2298 45.0479 43.4258C44.8883 43.6217 44.6947 43.7676 44.4668 43.8633C44.2389 43.9544 43.9723 44 43.667 44H43.3594V43.2617L43.6123 43.2549C43.8083 43.2458 43.9792 43.2048 44.125 43.1318C44.2754 43.0589 44.403 42.9427 44.5078 42.7832C44.6172 42.6237 44.7061 42.4141 44.7744 42.1543C44.8473 41.8945 44.9043 41.5778 44.9453 41.2041C44.9909 40.8258 45.0251 40.3815 45.0479 39.8711L45.1846 36.6035ZM52.6289 39.2832H55.042C55.6253 39.2832 56.1175 39.3857 56.5186 39.5908C56.9196 39.7913 57.2227 40.0693 57.4277 40.4248C57.6374 40.7803 57.7422 41.1813 57.7422 41.6279C57.7422 41.9652 57.6829 42.2796 57.5645 42.5713C57.4505 42.8584 57.2773 43.109 57.0449 43.3232C56.8171 43.5374 56.5345 43.7038 56.1973 43.8223C55.8646 43.9408 55.4795 44 55.042 44H52.1094V36.6035H52.9229V43.2959H55.042C55.4932 43.2959 55.8577 43.2184 56.1357 43.0635C56.4137 42.904 56.6143 42.6989 56.7373 42.4482C56.8649 42.1976 56.9287 41.931 56.9287 41.6484C56.9287 41.3704 56.8649 41.1061 56.7373 40.8555C56.6143 40.6003 56.4137 40.3929 56.1357 40.2334C55.8577 40.0693 55.4932 39.9873 55.042 39.9873H52.6289V39.2832Z" fill="#454545"/>
</svg>
